<svg id="Layer_3" enable-background="new 0 0 64 64" height="512" viewBox="0 0 64 64" width="512" xmlns="http://www.w3.org/2000/svg"><path d="m59 22v-1h4v-2.573l-28.632-16.784c-1.436-.842-3.3-.842-4.737 0l-28.631 16.784v2.573h4v1c0 1.302.839 2.402 2 2.816v28.369c-1.161.413-2 1.513-2 2.815v1h-1c-1.654 0-3 1.346-3 3v3h62v-3c0-1.654-1.346-3-3-3h-1v-1c0-1.302-.839-2.402-2-2.816v-28.368c1.161-.414 2-1.514 2-2.816zm-55.022-3 26.665-15.631c.823-.482 1.892-.482 2.714 0l26.665 15.631h-3.752l-24.27-14.158-24.27 14.158zm52.022 36c.551 0 1 .449 1 1v1h-8v-1c0-.551.449-1 1-1zm-5-2v-28h4v28zm-2 .184c-1.161.414-2 1.514-2 2.816v1h-3.026c.635-.838 1.026-1.87 1.026-3v-30c0-1.13-.391-2.162-1.026-3h3.026v1c0 1.302.839 2.402 2 2.816zm-9-34.184h-4.026c.635-.838 1.026-1.87 1.026-3 0-2.757-2.243-5-5-5s-5 2.243-5 5c0 1.13.391 2.162 1.026 3h-4.026-12.301l20.301-11.842 20.301 11.842zm-19 30v-22h22v22zm22 2v3c0 1.654-1.346 3-3 3h-16c-1.654 0-3-1.346-3-3v-3zm-22-26v-1c0-1.654 1.346-3 3-3h16c1.654 0 3 1.346 3 3v1zm8-9c0-1.654 1.346-3 3-3s3 1.346 3 3-1.346 3-3 3-3-1.346-3-3zm-8.974 41h-3.026v-1c0-1.302-.839-2.402-2-2.816v-28.368c1.161-.414 2-1.514 2-2.816v-1h3.026c-.635.838-1.026 1.87-1.026 3v30c0 1.13.391 2.162 1.026 3zm-12.026-34c-.551 0-1-.449-1-1v-1h8v1c0 .551-.449 1-1 1zm5 2v28h-4v-28zm-6 31c0-.551.449-1 1-1h6c.551 0 1 .449 1 1v1h-8zm53 3c.551 0 1 .449 1 1v1h-58v-1c0-.551.449-1 1-1h20 16zm-4-36h-6c-.551 0-1-.449-1-1v-1h8v1c0 .551-.449 1-1 1z"/><path d="m30 53h4v2h-4z"/><path d="m32 33c1.103 0 2 .897 2 2h2c0-1.858-1.28-3.411-3-3.858v-2.142h-2v2h-3v4c0 2.206 1.794 4 4 4 1.103 0 2 .897 2 2v2h-2c-1.103 0-2-.897-2-2h-2c0 1.858 1.28 3.411 3 3.858v2.142h2v-2h3v-4c0-2.206-1.794-4-4-4-1.103 0-2-.897-2-2v-2z"/><circle cx="40" cy="16" r="1"/><circle cx="24" cy="16" r="1"/><path d="m23 29h2v2h-2z"/><path d="m23 33h2v2h-2z"/><path d="m23 37h2v2h-2z"/><path d="m39 29h2v2h-2z"/><path d="m39 33h2v2h-2z"/><path d="m39 37h2v2h-2z"/></svg>