<?xml version="1.0"?>
<svg xmlns="http://www.w3.org/2000/svg" xmlns:xlink="http://www.w3.org/1999/xlink" xmlns:svgjs="http://svgjs.com/svgjs" version="1.1" width="512" height="512" x="0" y="0" viewBox="0 0 24 24" style="enable-background:new 0 0 512 512" xml:space="preserve" class=""><g><g xmlns="http://www.w3.org/2000/svg"><path d="m5.75 13c-.414 0-.75-.336-.75-.75v-4.5c0-.414.336-.75.75-.75h1.25c1.103 0 2 .897 2 2s-.897 2-2 2h-.5v1.25c0 .414-.336.75-.75.75zm.75-3.5h.5c.276 0 .5-.225.5-.5s-.224-.5-.5-.5h-.5z" fill="#ffffff" data-original="#000000" style="" class=""/></g><g xmlns="http://www.w3.org/2000/svg"><path d="m10.75 13c-.414 0-.75-.336-.75-.75v-4.5c0-.414.336-.75.75-.75h1.25c1.103 0 2 .897 2 2s-.897 2-2 2h-.5v1.25c0 .414-.336.75-.75.75zm.75-3.5h.5c.276 0 .5-.225.5-.5s-.224-.5-.5-.5h-.5z" fill="#ffffff" data-original="#000000" style="" class=""/></g><g xmlns="http://www.w3.org/2000/svg"><path d="m17 13c-.414 0-.75-.336-.75-.75v-4.5c0-.414.336-.75.75-.75s.75.336.75.75v4.5c0 .414-.336.75-.75.75z" fill="#ffffff" data-original="#000000" style="" class=""/></g><g xmlns="http://www.w3.org/2000/svg"><path d="m18.25 8.5h-2.5c-.414 0-.75-.336-.75-.75s.336-.75.75-.75h2.5c.414 0 .75.336.75.75s-.336.75-.75.75z" fill="#ffffff" data-original="#000000" style="" class=""/></g><g xmlns="http://www.w3.org/2000/svg"><path d="m22.25 4.5h-20.5c-.965 0-1.75-.785-1.75-1.75v-1c0-.965.785-1.75 1.75-1.75h20.5c.965 0 1.75.785 1.75 1.75v1c0 .965-.785 1.75-1.75 1.75zm-20.5-3c-.138 0-.25.112-.25.25v1c0 .138.112.25.25.25h20.5c.138 0 .25-.112.25-.25v-1c0-.138-.112-.25-.25-.25z" fill="#ffffff" data-original="#000000" style="" class=""/></g><g xmlns="http://www.w3.org/2000/svg"><path d="m22.25 18h-20.5c-.414 0-.75-.336-.75-.75s.336-.75.75-.75h20.5c.414 0 .75.336.75.75s-.336.75-.75.75z" fill="#ffffff" data-original="#000000" style="" class=""/></g><g xmlns="http://www.w3.org/2000/svg"><path d="m12 24c-.414 0-.75-.336-.75-.75v-5.75c0-.414.336-.75.75-.75s.75.336.75.75v5.75c0 .414-.336.75-.75.75z" fill="#ffffff" data-original="#000000" style="" class=""/></g><g xmlns="http://www.w3.org/2000/svg"><path d="m16.25 24c-.229 0-.457-.105-.604-.305l-3.646-4.933-3.647 4.934c-.246.333-.715.402-1.049.158-.333-.247-.403-.716-.157-1.049l4.25-5.75c.282-.383.924-.383 1.206 0l4.25 5.75c.246.333.176.802-.157 1.049-.134.098-.291.146-.446.146z" fill="#ffffff" data-original="#000000" style="" class=""/></g><g xmlns="http://www.w3.org/2000/svg"><path d="m21.25 18c-.414 0-.75-.336-.75-.75v-13.5c0-.414.336-.75.75-.75s.75.336.75.75v13.5c0 .414-.336.75-.75.75z" fill="#ffffff" data-original="#000000" style="" class=""/></g><g xmlns="http://www.w3.org/2000/svg"><path d="m2.75 18c-.414 0-.75-.336-.75-.75v-13.5c0-.414.336-.75.75-.75s.75.336.75.75v13.5c0 .414-.336.75-.75.75z" fill="#ffffff" data-original="#000000" style="" class=""/></g></g></svg>
