<svg xmlns="http://www.w3.org/2000/svg" xmlns:xlink="http://www.w3.org/1999/xlink" version="1.1" x="0px" y="0px" viewBox="0 0 90 112.5" enable-background="new 0 0 90 90" xml:space="preserve"><path d="M22.837,29.115H67.16c2.219,0,3.911,1.65,3.911,3.672v15.02c0,2.016-1.692,3.662-3.911,3.662H22.837  c-2.215,0-3.912-1.646-3.912-3.662v-15.02C18.925,30.766,20.623,29.115,22.837,29.115z M38.452,11.76V26.85h-14.83  C25.333,19.271,30.895,14.031,38.452,11.76z M51.482,11.735c7.558,2.187,13.136,7.536,14.844,15.115H51.482V11.735z M42.233,8.588  h5.473c0.855,0,1.51,0.646,1.51,1.494V26.85h-8.489V10.083C40.728,9.235,41.378,8.588,42.233,8.588z M42.233,6.313  c-1.833,0-3.376,1.333-3.709,3.073c-8.776,2.407-15.49,8.667-17.244,17.667c-2.636,0.661-4.621,2.959-4.621,5.735v15.02  c0,3.188,2.621,5.751,5.839,5.918c0.344,2.916,0.926,5.134,1.979,6.958c1.052,1.812,2.667,3.161,4.609,4.547  c0,0.593,0.005,6.219,0.01,8.598c0.005,1.787-0.475,2.631-2.303,3.588l-7.874,4.125c-1.448,0.667-0.323,2.817,1.046,2.011  l7.876-4.12c2.328-1.219,3.53-3.208,3.525-5.604c-0.005-2.5-0.017-9.046-0.017-9.046c0-0.38-0.186-0.729-0.494-0.938  c-2.135-1.459-3.479-2.688-4.417-4.303c-0.813-1.407-1.327-3.229-1.651-5.801h40.407c-0.411,3.791-1.178,5.719-2.845,7.452  c-1.817,1.896-4.952,3.647-10.014,6.833c-1.417,0.891-5.693,2.136-7.36,2.136c-1.667,0-5.938-1.246-7.355-2.136  c-1.301-0.952-2.624,1.142-1.208,1.912c2.13,1.344,6.037,2.49,8.563,2.49c2.526,0,6.432-1.146,8.563-2.49  c1.593-1,2.953-1.833,4.208-2.615c0,1.845-0.006,4.626-0.006,6.505c-0.005,2.391,1.193,4.385,3.517,5.604l7.88,4.115  c1.354,0.754,2.448-1.322,1.052-2.005l-7.88-4.114c-1.823-0.959-2.301-1.812-2.297-3.599c0.005-2.297,0.005-7.068,0.011-7.937  c1.608-1.057,2.906-2.032,3.969-3.136c2.068-2.156,3.031-4.807,3.479-9.025c3.234-0.156,5.865-2.724,5.865-5.923v-15.02  c0-2.787-2-5.095-4.658-5.746c-1.754-8.983-8.473-15.358-17.276-17.677c-0.337-1.729-1.875-3.052-3.697-3.052H42.233z"/><path d="M40.185,32.24c-0.64-0.027-1.176,0.49-1.176,1.129c0,0.646,0.536,1.162,1.176,1.136h9.625  c0.646,0.025,1.183-0.49,1.183-1.136c0-0.64-0.537-1.156-1.183-1.129H40.185z"/><text x="0" y="105" fill="#000000" font-size="5px" font-weight="bold" font-family="'Helvetica Neue', Helvetica, Arial-Unicode, Arial, Sans-serif">Created by Cuputo</text><text x="0" y="110" fill="#000000" font-size="5px" font-weight="bold" font-family="'Helvetica Neue', Helvetica, Arial-Unicode, Arial, Sans-serif">from the Noun Project</text></svg>